# xmcd
#
# Track frame offsets:
#	150
#	2418
#	28727
#	32231
#	52521
#	54698
#	83063
#	85806
#	113810
#	115647
#	148495
#	151045
#	165874
#	168413
#	194627
#	197134
#	223976
#	227081
#	247617
#	250224
#	268695
#	271704
#	300681
#	302798
#
# Disc length: 4372 seconds
#
# Revision: 1
# Processed by: cddbd v1.5.2PL0 Copyright (c) Steve Scherf et al.
# Submitted via: EasyCDDAExtractor 16.0.9.1
#
DISCID=39111218
DTITLE=Hoàng Oanh - HOCD: Tình Khúc Lê Dinh
DYEAR=2003
DGENRE=Country
TTITLE0=Hoàng Oanh - Lời Giới Thiệu
TTITLE1=Hoàng Oanh - Biển Dâu (Lê Dinh)
TTITLE2=Hoàng Oanh - Lời Giới Thiệu
TTITLE3=Hoàng Oanh - Cánh Thiệp Hồng (Lê Dinh)
TTITLE4=Hoàng Oanh - Lời Giới Thiệu
TTITLE5=Hoàng Oanh and Trung Chỉnh - Nếu Anh Đừng Hẹn (Lê Dinh)
TTITLE6=Hoàng Oanh - Lời Giới Thiệu
TTITLE7=Hoàng Oanh - Chữ Tình (Lê Dinh)
TTITLE8=Hoàng Oanh - Lời Giới Thiệu
TTITLE9=Hoàng Oanh - Huế Buồn (Lê Dinh)
TTITLE10=Hoàng Oanh - Lời Giới Thiệu
TTITLE11=Hoàng Oanh - Dòng Kỷ Niệm (Lê Dinh)
TTITLE12=Hoàng Oanh - Lời Giới Thiệu
TTITLE13=Hoàng Oanh - Ga Chiều (Lê Dinh)
TTITLE14=Hoàng Oanh - Lời Giới Thiệu
TTITLE15=Hoàng Oanh - Ngang Trái (Lê Dinh)
TTITLE16=Hoàng Oanh - Lời Giới Thiệu
TTITLE17=Hoàng Oanh - Âm Thầm (Lê Dinh)
TTITLE18=Hoàng Oanh - Lời Giới Thiệu
TTITLE19=Hoàng Oanh - Thương Đời Hoa (Lê Dinh)
TTITLE20=Hoàng Oanh - Lời Giới Thiệu
TTITLE21=Hoàng Oanh and Trung Chỉnh - Tấm Ảnh Ngày Xưa (Lê Dinh)
TTITLE22=Hoàng Oanh - Lời Giới Thiệu
TTITLE23=Hoàng Oanh - Thương Về Gò Công (Lê Dinh)
EXTD=
EXTT0=
EXTT1=
EXTT2=
EXTT3=
EXTT4=
EXTT5=
EXTT6=
EXTT7=
EXTT8=
EXTT9=
EXTT10=
EXTT11=
EXTT12=
EXTT13=
EXTT14=
EXTT15=
EXTT16=
EXTT17=
EXTT18=
EXTT19=
EXTT20=
EXTT21=
EXTT22=
EXTT23=
PLAYORDER=
